<svg xmlns="http://www.w3.org/2000/svg" viewBox="0 0 240 72" fill="none">
  <defs>
    <linearGradient id="gold-grad" x1="0" y1="0" x2="1" y2="1">
      <stop offset="0%" stop-color="#C8913A"/>
      <stop offset="100%" stop-color="#E8D5A3"/>
    </linearGradient>
  </defs>
  <g transform="translate(0, 6)">
    <path d="M12 16C12 10 17 6 23 8C29 6 34 10 34 16C34 26 23 34 23 34C23 34 12 26 12 16Z"
          fill="url(#gold-grad)" opacity="0.9"/>
    <path d="M20 14C20 11.5 22.5 10 24.5 11C26.5 10 29 11.5 29 14C29 18 24.5 21 24.5 21C24.5 21 20 18 20 14Z"
          fill="#2D2424" opacity="0.15"/>
  </g>
  <text x="48" y="28" font-family="'Playfair Display', 'Georgia', serif" font-size="26" font-weight="700" letter-spacing="6" fill="#2D2422">AATMIYA</text>
  <text x="48" y="46" font-family="'Inter', system-ui, sans-serif" font-size="9" font-weight="500" letter-spacing="3" fill="#C8913A">ELDERLY CARE FOUNDATION</text>
  <circle cx="228" cy="22" r="3" fill="#C8913A" opacity="0.4"/>
  <circle cx="228" cy="34" r="1.5" fill="#E8D5A3" opacity="0.6"/>
</svg>
